<?xml version="1.0" encoding="UTF-8" standalone="no"?>
<svg
   xmlns:dc="http://purl.org/dc/elements/1.1/"
   xmlns:cc="http://creativecommons.org/ns#"
   xmlns:rdf="http://www.w3.org/1999/02/22-rdf-syntax-ns#"
   xmlns:svg="http://www.w3.org/2000/svg"
   xmlns="http://www.w3.org/2000/svg"
   xmlns:sodipodi="http://sodipodi.sourceforge.net/DTD/sodipodi-0.dtd"
   xmlns:inkscape="http://www.inkscape.org/namespaces/inkscape"
   version="1.1"
   viewBox="0 -256 31.999996 31.999996"
   id="svg2"
   inkscape:version="0.91 r13725"
   sodipodi:docname="pencil.svg"
   width="31.999996"
   height="31.999996">
  <metadata
     id="metadata12">
    <rdf:RDF>
      <cc:Work
         rdf:about="">
        <dc:format>image/svg+xml</dc:format>
        <dc:type
           rdf:resource="http://purl.org/dc/dcmitype/StillImage" />
        <dc:title></dc:title>
      </cc:Work>
    </rdf:RDF>
  </metadata>
  <defs
     id="defs10" />
  <sodipodi:namedview
     pagecolor="#ffffff"
     bordercolor="#666666"
     borderopacity="1"
     objecttolerance="10"
     gridtolerance="10"
     guidetolerance="10"
     inkscape:pageopacity="0"
     inkscape:pageshadow="2"
     inkscape:window-width="1920"
     inkscape:window-height="1081"
     id="namedview8"
     showgrid="false"
     fit-margin-top="0"
     fit-margin-left="0"
     fit-margin-right="0"
     fit-margin-bottom="0"
     inkscape:zoom="11.9198"
     inkscape:cx="14.585749"
     inkscape:cy="23.32688"
     inkscape:window-x="-2"
     inkscape:window-y="32"
     inkscape:window-maximized="1"
     inkscape:current-layer="svg2" />
  <g
     transform="matrix(0.02112211,0,0,-0.02112211,0,-226.70363)"
     id="g4">
    <path
       d="m 363,0 91,91 -235,235 -91,-91 0,-107 128,0 0,-128 107,0 z m 523,928 c 0,13 -9,22 -22,22 -6,0 -12,-2 -17,-7 L 305,401 c -5,-5 -7,-11 -7,-17 0,-13 9,-22 22,-22 6,0 12,2 17,7 l 542,542 c 5,5 7,11 7,17 z m -54,192 416,-416 -832,-832 -416,0 0,416 z m 683,-96 c 0,-34 -14,-67 -37,-90 l -166,-166 -416,416 166,165 c 23,24 56,38 90,38 34,0 67,-14 91,-38 l 235,-234 c 23,-24 37,-57 37,-91 z"
       id="path6"
       inkscape:connector-curvature="0"
       style="fill:currentColor" />
  </g>
</svg>
