<?xml version="1.0" encoding="UTF-8" standalone="no"?>
<svg
   xmlns:dc="http://purl.org/dc/elements/1.1/"
   xmlns:cc="http://creativecommons.org/ns#"
   xmlns:rdf="http://www.w3.org/1999/02/22-rdf-syntax-ns#"
   xmlns:svg="http://www.w3.org/2000/svg"
   xmlns="http://www.w3.org/2000/svg"
   height="32"
   width="32"
   id="svg2"
   viewBox="0 -256 32 32"
   version="1.1">
  <metadata
     id="metadata12">
    <rdf:RDF>
      <cc:Work
         rdf:about="">
        <dc:format>image/svg+xml</dc:format>
        <dc:type
           rdf:resource="http://purl.org/dc/dcmitype/StillImage" />
        <dc:title></dc:title>
      </cc:Work>
    </rdf:RDF>
  </metadata>
  <defs
     id="defs10" />
  <g
     id="g4"
     transform="matrix(0.02083333,0,0,-0.02076574,0,-226.65801)">
    <path
       style="fill:currentColor"
       id="path6"
       d="m 1312,643 c 0,109 -32,210 -87,295 L 471,185 c 86,-56 188,-89 297,-89 300,0 544,245 544,547 z m -999,-299 755,754 c -86,58 -189,91 -300,91 -300,0 -544,-245 -544,-546 0,-111 33,-213 89,-299 z M 1536,643 C 1536,217 1192,-128 768,-128 344,-128 0,217 0,643 c 0,425 344,770 768,770 424,0 768,-345 768,-770 z" />
  </g>
</svg>
