<?xml version="1.0" encoding="UTF-8" standalone="no"?>
<svg
   xmlns:dc="http://purl.org/dc/elements/1.1/"
   xmlns:cc="http://creativecommons.org/ns#"
   xmlns:rdf="http://www.w3.org/1999/02/22-rdf-syntax-ns#"
   xmlns:svg="http://www.w3.org/2000/svg"
   xmlns="http://www.w3.org/2000/svg"
   xmlns:sodipodi="http://sodipodi.sourceforge.net/DTD/sodipodi-0.dtd"
   xmlns:inkscape="http://www.inkscape.org/namespaces/inkscape"
   version="1.1"
   viewBox="0 -256 31.999996 31.999996"
   id="svg2"
   inkscape:version="0.91 r13725"
   sodipodi:docname="box.svg"
   width="31.999996"
   height="31.999996"
   inkscape:export-filename="/home/dcocco/workspaces/zend12.5/atto-drawing-plugin/pix/box.png"
   inkscape:export-xdpi="90"
   inkscape:export-ydpi="90">
  <metadata
     id="metadata12">
    <rdf:RDF>
      <cc:Work
         rdf:about="">
        <dc:format>image/svg+xml</dc:format>
        <dc:type
           rdf:resource="http://purl.org/dc/dcmitype/StillImage" />
        <dc:title></dc:title>
      </cc:Work>
    </rdf:RDF>
  </metadata>
  <defs
     id="defs10" />
  <sodipodi:namedview
     pagecolor="#ffffff"
     bordercolor="#666666"
     borderopacity="1"
     objecttolerance="10"
     gridtolerance="10"
     guidetolerance="10"
     inkscape:pageopacity="0"
     inkscape:pageshadow="2"
     inkscape:window-width="1920"
     inkscape:window-height="1049"
     id="namedview8"
     showgrid="false"
     fit-margin-top="0"
     fit-margin-left="0"
     fit-margin-right="0"
     fit-margin-bottom="0"
     inkscape:zoom="4.2142857"
     inkscape:cx="84.975149"
     inkscape:cy="1.1330091"
     inkscape:window-x="-3"
     inkscape:window-y="24"
     inkscape:window-maximized="1"
     inkscape:current-layer="svg2" />
  <g
     transform="matrix(0.02272727,0,0,-0.02272727,0,-224)"
     id="g4">
    <path
       d="m 1120,1280 -832,0 c -88,0 -160,-72 -160,-160 l 0,-832 c 0,-88 72,-160 160,-160 l 832,0 c 88,0 160,72 160,160 l 0,832 c 0,88 -72,160 -160,160 z m 288,-160 0,-832 C 1408,129 1279,0 1120,0 L 288,0 C 129,0 0,129 0,288 l 0,832 c 0,159 129,288 288,288 l 832,0 0,0 c 159,0 288,-129 288,-288 z"
       id="path6"
       inkscape:connector-curvature="0"
       style="fill:currentColor" />
  </g>
</svg>
