<?xml version="1.0" encoding="UTF-8" standalone="no"?>
<svg
   xmlns:dc="http://purl.org/dc/elements/1.1/"
   xmlns:cc="http://creativecommons.org/ns#"
   xmlns:rdf="http://www.w3.org/1999/02/22-rdf-syntax-ns#"
   xmlns:svg="http://www.w3.org/2000/svg"
   xmlns="http://www.w3.org/2000/svg"
   xmlns:sodipodi="http://sodipodi.sourceforge.net/DTD/sodipodi-0.dtd"
   xmlns:inkscape="http://www.inkscape.org/namespaces/inkscape"
   version="1.1"
   viewBox="0 -256 16 16.000001"
   id="svg2"
   inkscape:version="0.91 r13725"
   sodipodi:docname="icon.svg"
   width="16"
   height="16"
   inkscape:export-filename="/home/dcocco/workspaces/zend/Moodle Atto Drawing Plugin/racsdrawing/pix/icon.png"
   inkscape:export-xdpi="180"
   inkscape:export-ydpi="180">
  <metadata
     id="metadata12">
    <rdf:RDF>
      <cc:Work
         rdf:about="">
        <dc:format>image/svg+xml</dc:format>
        <dc:type
           rdf:resource="http://purl.org/dc/dcmitype/StillImage" />
        <dc:title />
      </cc:Work>
    </rdf:RDF>
  </metadata>
  <defs
     id="defs10" />
  <sodipodi:namedview
     pagecolor="#ffffff"
     bordercolor="#666666"
     borderopacity="1"
     objecttolerance="10"
     gridtolerance="10"
     guidetolerance="10"
     inkscape:pageopacity="0"
     inkscape:pageshadow="2"
     inkscape:window-width="1920"
     inkscape:window-height="1081"
     id="namedview8"
     showgrid="false"
     fit-margin-top="0"
     fit-margin-left="0"
     fit-margin-right="0"
     fit-margin-bottom="0"
     inkscape:zoom="33.714286"
     inkscape:cx="-0.23301017"
     inkscape:cy="3.5486251"
     inkscape:window-x="-2"
     inkscape:window-y="32"
     inkscape:window-maximized="1"
     inkscape:current-layer="svg2" />
  <g
     transform="matrix(0.00896987,0,0,-0.00896987,0,-241.68521)"
     id="g4"
     style="fill:#999999;fill-opacity:1">
    <path
       d="m 888,352 116,116 -152,152 -116,-116 0,-56 96,0 0,-96 56,0 z m 440,720 c -9,9 -24,8 -33,-1 L 945,721 c -9,-9 -10,-24 -1,-33 9,-9 24,-8 33,1 l 350,350 c 9,9 10,24 1,33 z m 80,-594 0,-190 C 1408,129 1279,0 1120,0 L 288,0 C 129,0 0,129 0,288 l 0,832 c 0,159 129,288 288,288 l 832,0 c 40,0 80,-8 117,-25 9,-4 16,-13 18,-23 2,-11 -1,-21 -9,-29 l -49,-49 c -9,-9 -21,-12 -32,-8 -15,4 -30,6 -45,6 l -832,0 c -88,0 -160,-72 -160,-160 l 0,-832 c 0,-88 72,-160 160,-160 l 832,0 c 88,0 160,72 160,160 l 0,126 c 0,8 3,16 9,22 l 64,64 c 10,10 23,12 35,7 12,-5 20,-16 20,-29 z m -96,738 288,-288 -672,-672 -288,0 0,288 z m 444,-132 -92,-92 -288,288 92,92 c 37,37 99,37 136,0 l 152,-152 c 37,-37 37,-99 0,-136 z"
       id="path6"
       inkscape:connector-curvature="0"
       style="fill:#999999;fill-opacity:1" />
  </g>
</svg>
