<?xml version="1.0" encoding="UTF-8" standalone="no"?>
<svg
   xmlns:dc="http://purl.org/dc/elements/1.1/"
   xmlns:cc="http://creativecommons.org/ns#"
   xmlns:rdf="http://www.w3.org/1999/02/22-rdf-syntax-ns#"
   xmlns:svg="http://www.w3.org/2000/svg"
   xmlns="http://www.w3.org/2000/svg"
   height="32"
   width="32"
   id="svg2"
   viewBox="0 -256 32 32"
   version="1.1">
  <metadata
     id="metadata12">
    <rdf:RDF>
      <cc:Work
         rdf:about="">
        <dc:format>image/svg+xml</dc:format>
        <dc:type
           rdf:resource="http://purl.org/dc/dcmitype/StillImage" />
        <dc:title></dc:title>
      </cc:Work>
    </rdf:RDF>
  </metadata>
  <defs
     id="defs10" />
  <g
     id="g4"
     transform="matrix(0.02083333,0,0,-0.02083333,0,-226.66666)">
    <path
       style="fill:currentColor"
       id="path6"
       d="m 384,0 768,0 0,384 -768,0 0,-384 z m 896,0 128,0 0,896 c 0,19 -17,60 -30,73 l -281,281 c -14,14 -53,30 -73,30 l 0,-416 c 0,-53 -43,-96 -96,-96 l -576,0 c -53,0 -96,43 -96,96 l 0,416 -128,0 0,-1280 128,0 0,416 c 0,53 43,96 96,96 l 832,0 c 53,0 96,-43 96,-96 l 0,-416 z m -384,928 0,320 c 0,17 -15,32 -32,32 l -192,0 c -17,0 -32,-15 -32,-32 l 0,-320 c 0,-17 15,-32 32,-32 l 192,0 c 17,0 32,15 32,32 z m 640,-32 0,-928 c 0,-53 -43,-96 -96,-96 l -1344,0 c -53,0 -96,43 -96,96 l 0,1344 c 0,53 43,96 96,96 l 928,0 c 53,0 126,-30 164,-68 l 280,-280 c 38,-38 68,-111 68,-164 z" />
  </g>
</svg>
